<mxfile host="65bd71144e">
    <diagram id="Fqr3blDcr0BpRLWEkyyB" name="第 1 页">
        <mxGraphModel dx="728" dy="627" grid="1" gridSize="10" guides="1" tooltips="1" connect="1" arrows="1" fold="1" page="1" pageScale="1" pageWidth="827" pageHeight="1169" math="0" shadow="0">
            <root>
                <mxCell id="0"/>
                <mxCell id="1" parent="0"/>
                <mxCell id="5" value="" style="shape=stencil(lZTbbsMgDIafhlsLzMFw3XXvUanpEi1LqjTd4e1HhLIVSDztzjF88Y9PQh9u7enaCJS3eRpfm4/uPLdCPwnEbmibqZujJfRR6MNlnJqXabwP5/R9PS03F+ttfF/+8Jk4JSVIuWAov5Lrx/GcgL4beEABqn8BBMHtA8FCwDyAB2IkBQmkMgANeCaCN4AhA7QB5fcBsmUEY4CYCI5AmQywFizuA5ZWxSvgLDizD5gKIAOWyZL2YCkDvFoTvQ0oMDoHCBxTaaweHRQrCXUpKRhwxABYRXDgLANUvRc8SK5bqyyFwANVHSLAFU65Mq0PE7JNVO36J1GVLooizUzExqstMxDVPMT7ihFUl4GKukXjd0ddur5PK+7xvNxp0ZX2oT5+Aw==);fillColor=none;" vertex="1" parent="1">
                    <mxGeometry x="200.5" y="117" width="17.5" height="138.25" as="geometry"/>
                </mxCell>
                <mxCell id="7" value="" style="shape=stencil(lZbbbtswDIafxrc/JFGUqOuue48CTZdgWVKk2entR8NQZtEJh93ZND+aZ2mip4/9y/tuSuHjejl/3f08vF73E32aUjqc9rvL4apPEz1P9PR2vuy+XM7fT6/L+/vLrDk/fTv/mC38WriAEGYohd9G8HlRPx5OK/WIQP+hTkh5UI/I8li9QEbrGTk+Vm+g0XpxrUdCbqM3AbE5gIDG5MSMUh4DGm8xQENlB2hIo0uJQU7IlFFlAChAHJdyQC4jUFDJAQoCj0VIYCdLHBHHP+Rb3u4DjFYHgAnsZKkE8JhWll7K+4CWyXQGISYHEJSxDqUi58dATaAxS1Vb24mhMmoaAUb0AAEbQPo03QUk9hA7oJLgBC06D+O4qYSc1hDuId4A7iN4H6igsVtV4k2ctO7xDRCIA7RNe88SJ4YWIXEEIkp1AEIwf0hoTnu3bHekmhDPpdxDvAG575H7AIPHAVJJcirdSm+1FVCcValAMTGoCafSrSJEC3jzoIDZrQpUZ5EpwCZL+k+vcBUiFiAvaOn2VkDxmk8HcgM0H7Dd6q9K/VzYAsU7EnVcsgWa1xo6cQbQM8nr1oZIFnDT2vpSWQHs9VKzm08lbh30kI0WEK/5ml0CMfgXmS3x7yDaJq9emlYerAi3wbc+iTlS9OHvxe/tcDwu98b1d3tRVNFyyaTnPw==);fillColor=none;" vertex="1" parent="1">
                    <mxGeometry x="203" y="255" width="129.75" height="81" as="geometry"/>
                </mxCell>
                <mxCell id="8" value="" style="shape=stencil(lVfZbhsxDPyafR3opvicpv8RIE69qGsHjpvj7ytj2ySUArF8k9czIoeXpCXePO3vHndLcE+X8+nn7mW9v+yX+G0JYT3ud+f10lZLvF3izcPpvPtxPv0+3m+/H++uyOvq1+n5usPrxnNw7koK7q378H2DH9ajgMdqgHtUNsATSjLAC7I3wBnVAvcRxaS1wpEBHwLIojYQsiVVMcBLf8K/Db7GF5Qs8HmeLIci40nT/VMEF4H3SjUUsEyAnytIjCIV+7mEHOA6C3MNOSHKnClJyEONaoTaV53WBA41mwgBTCZCC6LNAsFFE4HhuijNM02j6HmmKfSjJc5dooQgR1dULGSwbM+kWCAkqSEpFio4yAadW6gOqSPMLVQPkqLzvB9q7GdeUVxqYXUmQkZIJkKBryYCwQcToQ16K6HaCIxs0sDDuawRvDFKjcCyp8u8Rbl1nKylMi8+joiyH8q8+Hg4UEjRkPqwkqIhw0sNpGjIoO5MVDQM1VoVl4ZTuiouUX/GVcWl4Z7BSlgJVVpgRUNFkFFiRUNFlkOAFQ1Dx3mniGB4Z2V0d4H/YORoZXQ3Gi1SwyVXSx6DpYo2QP/a/Pqa++HyO0O5GI+MYdi0xccL5WE9HLYHzuf/+xdN+7S9huLtHw==);fillColor=none;" vertex="1" parent="1">
                    <mxGeometry x="230" y="117" width="265" height="5" as="geometry"/>
                </mxCell>
                <mxCell id="14" value="" style="shape=stencil(lZpbbh03EERXo1+Cb7K/HWcfBixHQhTLkJXX7lOEwtGwOLcM/13LPDPsJ7ubc5c+fH/49O3+Lvrvry/Pv9///fj59eEu/XIX4+PXh/uXx1f8uksf79KHL88v97+9PP/59fPbv799GivHrz+e/xpP+OeN8877AUX/L/3h17flT49f9fJiP7E8uNp/YnlyQW4mBFrem1qe87K8uFjU8v8fNpdX18Ty4HJclneXxPLoQl81A+HF5pPzdV0PVYr12flV2JBcjLfXFxfSuj67Wm+vr/Npx/riLN1e31xcbRWa88JzoD3ynO6i8AVzhdbbfMK1ubxrKwCDSwAWWyWGyWMWQHK1rEB0UagIGoyrT8DqEoAKV6PB7FHEF3TYbQWKS+IN0Elb3QiGl0B0md5wWP4ayFOJB9Cn614DxbXKQBeejQ1QqMFZstASnlcpDXnpq3ieBQaqkCGFLXPhL+INKXL4AFDZKCWXCYgy26XMAQSgKRnKzPwHkGQ8pDpz/wmQb2gzAx1A1m/oHHEAmlKruboGEKSKAsiwa2BAvSEHl0joKkM0H2Y6AV0InXEy0JaaDFEArTPQlQxwjTVEoegiUmVGUqEtmfPC+XKdZ98JUKcPgL4aDpaJ6jhsrgUG1HmVu8vrlmDKouyApLIabphSyFD8NNMJMHVEh3kCHkByRfhS2YoMmFIlgbJVGQBMZG8ARjIUvaXsOslQ5yavATyvMaAirmyVCWyfhbcCsDWRwfZeCd1m6j0BVRmuczKGs6iDvZgLjYGuAYoHeJcK0ernEXgAQdaHNcxy9gSYsEPd6iW4YxNqBdBpSzjEhNB1K7DgXUG4d81cVAJQEQfA1niAO6qDveI0IKFRL6kyuvL5AO/yakt17vgEVGWHxoms6M6kdj5Q4F1yS50zHwDV5lXjPg/uqI5dADkxYEoG25q3IEO0eQ5RuGMSWwLQV6HhjkG4dwszCx1AlociAFuPXXiXqozbVnvDWSSQuH+As6gAasd5cwC6K2uZ20pYRhW6AMoacVC0F77UCvsSABMRB4DGAE0PJdrWcEDRKoBand3CCTClpcqzAyg6KcNVPoHaUdTdAmyNh2EZUS+1rWl6t8wtoAQGTMmAU3R1jVZkZQzACgNF2aHzKQpAnaIAqAEfptRvoIhrVZ6iAKgMHbZXWupcYAGoypeMBz/DWVReslmlngCpJePSYXiXksHmAXUATat166ebHiJ0Pw+oE5CELwGgqcPwXyEDgFwZUGoFQN0ugK631EhLehACwDwDUkvb1GH4r7A0AOpQWpfOB4A69qZnMwCo5nv332sgzonwCVBdFgDqRZue/gAoiYGmhEbdWhlQVWVP80Q7RsXeBSX0NswBkET2BlAjA2pOD6BnBtR8qWfOrcMd1Za2+VLXIy8A1NL0Y8R+DZRZu5wAVawDoEQ23FH5UuGZMWyvihMAVKx3PYXrlfMSgKzUWjkvAagqpiunmeG/akuN+7jhv8oObdYuJ0CN7QCUwkBWiaxx1hgOr4TuPD4dDq+E7txwwB3V9UzfRo8AVEsDgLLGiBAltG1ZI88K6hZA3W7PsjIGUMjSRc5m+jY+BaDqVgDUNAFQVaV5Hgx2PW8FQCUcHF4NcwAkY0DNZmwbAY8YFL4EgBNZlVd3FmZ1dALUgBZAJC012YvaNpXuemYMgFNlk/MlAJwq2xyN3AI4VeqptEVuXhFSqqoEEDIDqli3bRQPQFWVAFJlQHUoFnk2A0BqKXIDPvKI3hIDehQPgIp1AKqqBMAHiv1IS1S3AsjK0tsNR9e3AwD4yDJZhtpxz3oC1O2AJT7jEOXqUwUANCMbmUqp9QpIWoYdUNX9JaCqewA0mwGgeiAAtTHwAzvQ1ZTpWxoAdKE9AOV8mcdFSDzScJkbjpFtldCZa42RbZXQmWuNkW2V0Nt9nOmrKQBUnACoKglkHnmNfK4iLvO89T2f3wKMLB1l42eFh2ojnysZCt+Wmb6PuwSSsvQVoDqUS6AoS28XqSPbKm8t3CkC6FoGqvlMX0ICoJpvpGeVvQt/QjKyrTYcFYkjU+kt0S3NyFRKrdt188hUSoYrQKr1CpBqrTxvHZlKJbI624sToPppAHT/AEBdTQGgie5IPFoGmjqMPKIsXfm2zPR1s1W+EhlpQWkJdXBlQH3lBYBK6RFSSkuNS+n3CLkGOtetQw0q8/XNcE1/Ctd5fGr6Qjv4/TtNz9+B4sf7N6RfHp+e3j5BPf8/f3OKP719r5o+/gc=);fillColor=none;" vertex="1" parent="1">
                    <mxGeometry x="223" y="119" width="114.5" height="226" as="geometry"/>
                </mxCell>
                <mxCell id="15" value="" style="shape=stencil(rVjLbttADPwaXYldcl88p+l/BIhTG3XjwHH6+PtSEOx2l/LUBnqTZc6KHHJISpM8vG+f3jYTh/fT8fB182P3fNpO8mli3r1uN8fdya4meZzk4eVw3Hw5Hj5en5ffb0+z5Xz17fB9PuHnggsUwgzi8Gu5EcPl1ucFsN+9/leANmJB9o17+0ShXLdniqm3j5T1un0i1s6+VSrxun0dz29CEZwfA9XYAWojYQDII0NVSBIAKJXepdIoVUCRe0JJFBGn/gmBMiBJHKu5QpakUa49IFECLCWX5xypNQDIJKUDJKUMgk5Wl33iUj07uQowB0Ifgz2zgKCzjEEnoQZozcU9wWjIAOBjuOhpFVCcPMVyD+RcXB7mVCKAkEoPqBiQRwFJoYJicBIVOwK0mOJYMkAAmS5OD1bwCcRQXRMQoQJcqp5WpgYybT1ijIEpAD1UJ1GJJKjxua4hAUq0umqd+wiKwSWOG1UgUQO0XtPWnlETsNY7FB8XUiDR6jJtgAhYamFsM9ZtGbDUXNewkZQAS82VBlstgWo1wMiSUEAxuL5kU1WQS66WOFIBeTDASKvRgFhy3dsWA+iSK755TIJMG6D2MUQrFuSSq1YDMHLp0ucugEoJseTKO5qToM0018hsmVDQZprTgwEY1ZKOmY4JzofmBBRtAIBtRv1GKdAldb01MhwothCmIegI54M6xdlSpyDT6hRngAgyrU5xCueJ+q0VjhP1OyWcJupmLl7f1KmtUEb+lDEF+czYur3TWoazSp1yEhwk6vckYsS/W1flX+ePSw98B1AnM4ZzTf2YooxeGYJTGZ8ZuBWA1+1VQAEUrQLSfTFEOJpXAOHeGMK9MYR7YwjnzN8OQK/bNwDs4s/ngJfdfr98Tfj7//Hzgd1aPj3I428=);fillColor=none;" vertex="1" parent="1">
                    <mxGeometry x="341" y="221" width="35" height="113" as="geometry"/>
                </mxCell>
                <mxCell id="16" value="" style="shape=stencil(lZbZUuNADEW/xq+q3lt6ZvkPqggT14SECmGWvx+5XM0gARf85nR0rP26p3z1vL972k0pPF/Op5+73/P9ZT/l6yml+bjfneeLPk35ZspXD6fz7sf59HK8X38/3S2Wy9Pj6dfyhj8rFyiEBUrhrzu4Xc0P89GY57LBPFONG8yZuDlzLp+bx0jd2idKEdg3at3YFyrAXl/XbbZMQYC9ULHxxEQVladRqBbo1OrnQEnUbERLiTMAmIr1kANF4KFm6g7QIIGHyiOA16JGElDVpjnYKpVOoQGgEosBahiN+RjQpNkCuNFd58xuQcWd7u8mo0VYpV6I7Sa0TAnk0HVWHdAoMgCYkq2SliEjQMZyDaBHyglsZ6Rk10ezSqBxrJ22IWlWpQMgk9jGaVYN5MDVh8TaSgQ0yrbT6hN1mrtXPC5UUdJadRdSGzL1MSBjNl8BhqMhKsIOEOpgvCUOWRyAnqBZkkQxeQDttAJuRfUECZmobNmy6gmaVikUnQddKeShULedlkoVdFr/Ti7pBvdBAScCgoVM35eqBzoKqXm5F4ZyvwRgxVgErqgC1X2BAv5GKyF5G8GjjBuIylsJ6dsI8e3+BuE+K18VV7yGf9Vv2ThRb0L+7pS/d+G1QB/+3xYf5sNhvWy+/d/fLvVovZnmm38=);fillColor=none;" vertex="1" parent="1">
                    <mxGeometry x="380" y="222" width="96.75" height="17" as="geometry"/>
                </mxCell>
                <mxCell id="17" value="" style="shape=stencil(fVfbchsxCP0avzISIC16Ttv/yEycxtM0zjjp7e/LjqutITvnbb3mrAQcDnCQu7en+9fjgcvb++X87fjr9PD+dJBPB+bTy9Pxcnr3p4N8Psjd4/ly/Ho5/3h5uP5+vV8t16fv55/rF35fcbUUKmWFcflzfbW9+HIFPJ9ebgBjEC/JfmnAfqFWgz3TYGCvJC3YL8TInsl6sN8uuG9fSC3YV6YGHDbLAaqdSgWAlj2ogxpwwZiWeCUWKgIA7sOIgE4VnLAY9RgktpmWfcBCNWZNCnV0QqOuEeBhNQBQqtFpUVJ0Jf+eREAnVgBwYsYoiRGDTHfLVNJCAq7UO/VYC8rEwOmuxPFK6nRHgEo9Oq19smsX0Cw7rUYV1ENrtEQfWqEKwtq84GKmWyUDbPXvlXilJsQAoAtpOkEn4fcBSiMmbvWqAwDnxLVOBvLgREgF5IFGIuBUs5i4NqgCp2XJ9dDLrMF9gLsYS9TJUgG9vb4khrUzFeC0CNUoZN11CYTVS74kgFIBXJI6/74BGMi0q1CNYe0eBhBW7wYS1duLtoF6WIUxUqM7HYHyeX9K9eA6oiAP/EFb+4Ai4OIu8UoubYJ8aNRSD61QNVhnEDcAk6IThBaOAH8DMu1dP7HVOwaaM9iVLwFc7gH5fA5Jg4Y3sQao4V1Zkg+beO4DLJPPGzGqBx8URqSG1XnmPqDNWWoD4C5alVrUJZMZ6H2AZC6ZQvX26Sjpks83AzldaES5twXKzCCLFWq4TVsmhnkigQcfBtB1BATF0OcYstlXUtTf8jDmIykSDM29ZwgktmQS+YgMdT4rntsPVJqZc8NnOSQWeYYZXpiIcnPev7FfgLbUTGlfIVB+6xy5buzRRlJn497s8YRUyDjbdxD/ksXX7dFsUXJFrisWuH/JBen2CvL7YcG72fn+Afzh/4L4eHp+vu6Xt//nhdJfXZdR+fwX);fillColor=none;" vertex="1" parent="1">
                    <mxGeometry x="341.5" y="241" width="136.5" height="89" as="geometry"/>
                </mxCell>
                <mxCell id="18" value="" style="shape=stencil(pVjLbtwwDPyavRKSJVHiOW3/I0A2zaJpEiTp6+87xkLuknEGCHrzrjmWZkiOaB/K1cvd9dPxsKSX1+fHb8dfp5vXu0P5dFiW08Pd8fn0iqtD+XwoV7ePz8evz48/Hm7Ov5+u18j16vvjz/UJv8+4JCmtoCX9CX98OYffnx5cuI4PhGfpMXz99V54kb648CzF3g+v0s2FL5L7++EqXV14kUY2M8T805vkRqhmqd3Fd0ksvkqqLt5kySReo5ZYke0/m9TiAUUGAUBtC/KrZAao0jzlPKQpAWySbBlLMkjKoEkNgDJl26+gHAsUaVtIhZYi5hsAm1zYCk3Ml9GaOMKhDEnZ112mdVrRU15WbDIRWSsS51UqlWa6otECQKfQ+4AmNfTOoNVakWnfPcVkEFnrEPXVClaVkG5pirgBylxzHwAz8nmodfrNPgDP87VUVQrh0KqUsKUuoxBAE/V5qMZJq5hXCTIYSVwbUnx5t0Uq42CingNYJeaqOfoYWDETUGzA56Fxp9QSnQ+sKulp3Zx6A9j0/n2ATiedAIWsgwCQV88BrArJtFrsB7BSUq09SfGktYqRjutol7BCmyfYPmCJ5wNYsUz3Estbh2Qia6+yhBWMemtvUaVVBiIrAOaLDzJktoJGE+iZNlDvs9Q2wEJrqcMYffFBt84SZ/OA2gBVlKww0qS4AeAjZIWR32xJafENFLO3e8jQST+MItVXK1hlkriB0cFnGqwKycNocdgDq0aqdWg82MGqM9I9eis2mZisI04Co9ETaFh0DWySTTOWpI0IYD1teYq4Afr0833AEt0brCrJNAAaAEZNwMps+QsAmwTszXBimxfuA2AzPg+Qgc1LAKhFgJIDxZBXXxqQgdkMAMG9V90YhxZffYxPM6aT4gVASccBUMIKlRefxuIDgI0OAMTEYQwlPW09vnxChoUlrr/JdKNWCUA441bdWD/0WQgXANoPMMYeAYMDwrC+smKZHvMl7ALApkoAwjmNf9ixi9utRoByQKzWMd8d3wOM0HFwDUba4hlnfDLG7VjemPmYShbnpZz4xwwgVD+K6PWjiFE+QuPigf+FYNruIWKB4OLfJ6bb0/39+QvV5f34SQp/nT9nlc9/AQ==);fillColor=none;" vertex="1" parent="1">
                    <mxGeometry x="230" y="119" width="146" height="92.25" as="geometry"/>
                </mxCell>
                <mxCell id="19" value="" style="shape=stencil(lZjdUhsxDIWfJrcaW/Kfril9D2YIJVNKmED/3r7aSXeLZefQ3KVbfawtycdHu5Ob18e7l/2Ow+vb6fh1//Nw//a4k0875sPz4/50eLNfO7ndyc3D8bT/cjp+f74///vlbolcfn07/lj+wq8zF0OgEBaMw+/zo+3B5zPwdHj+CGC9CmAK7Sogk/BVQCXOlwFVYu7iY6AMNq2VSumBBDettuLYA40SegNT1D5JDIGmFPolcaEUAZBJUweIpQ3soVmZpAeEWC4DtVF0gL0TAdnXTRox2HRlX4dke0gACL4OKVIul4HSqOYeEAoVANUXLiUSBGQqfZaSPUFA8pVOhRQBvDbzBlhaERAoujcoZQDkSq1Paw7UEFDWA7kBvL5zDiQqfVqzUEKA+OazP1ERsDXCBli3AtXIoyxZ7UHzWdZTf+JyIwHnIQ0yk5USUD5rhNY6oGAhS4MuFUsDEGPrfncelu4CWUqDkBWhjDYd/HmwhhegS6LU+rTakYpgSTJIpQEKpHJRIZfWAo+oFKr9hWKygAongxib8ERQBwPcETVAQfOJJdHtQamC1jBxz33hTDyRVAp7EaiREqi0DBeK6Tm6RSV61agmxqjSgVL1QAOVZvUyUxNUPm5r52xAXs3EJcDpkgFIKs27SN8atVBGbyheyGqF2mp2qjYPVJSl5P2SXfUC6sDila8qdJU8XOwGIJnh6JWvhVV4LgFBPVDBAeLBOrS4ysLchuqqc++Ahnzr4DXMcgko3BSoyHuPALZwU6Bct6QEXeUUQO09BfS6JWV4oUwBWLi6+q8NKLhwg0k0oKEpa/PyG7DJwhwYXKUBFciMDTDuFm1tbfhLgLtFDWjgiEbxt6jNLHBSHHyrAQ116wCozaKoDjMA1mEEIj5AMwDWYQQYT7vRew0DKqpD8F5D5YOJ3XsNA1Ad1FsNxSNQ807D4tEtPUwby3gNdly9z9DtxpvPP95mqD0B65nFF7CeWTwc4Ib4Cu+27F2PxWew/mG2sviGvKT3PNqwDfOWR/H8yd7xWHxCN603PBaPrG3wfsfiFRyxYdBTXXf03/EM8jmLR7PtLB75tWk8yOcQ/+6L2l/Afvz7hPhweHo6f4F8///+k6M9On+ulNs/);fillColor=none;" vertex="1" parent="1">
                    <mxGeometry x="481" y="124" width="16" height="115.5" as="geometry"/>
                </mxCell>
                <mxCell id="20" value="" style="shape=stencil(nZXdbsMgDIWfJrcWYLDNdbe9R6Wma7SuqdLu7+1HFCkpkHjS7ojxF2H7HGhwdzvtr23jzO0+9G/tV3e4nxp8apzrLqd26O5p1eBzg7tjP7SvQ/9xOUzf1/2YOa7e+8/xD98TZ8CYEXLmpwi8TOnn7vL/dATELN3B+LWVzmB9lk6AYTtdyr/PgdV06yDkh18i6wABcQ7MkVUgdUOKevWCU8VGcoCBRWmoBRcyAFEtGgN4lwMCEhUgQsiP5D14vw34UBYddFGESkTBg1XaumzPgD7pUCmD9EmTKbtE+qSp0hJFtUvky7ayLg0S4HzSjEBWMU8lPk72USadDhDzojmqc+BQDk4sRKVoruQtulqXA8yAB1a6JJUfhMAqXZLqShLdDzUQrSqNFQDBkAJUFo2644RL8cXZg+tA5enIqviWEuebz+imjtUt8BfxsL+NpMXych2783l6+B73y5cuhaZXEp9/AQ==);fillColor=none;" vertex="1" parent="1">
                    <mxGeometry x="376" y="209" width="6" height="9" as="geometry"/>
                </mxCell>
                <mxCell id="24" value="C&lt;br&gt;" style="text;html=1;strokeColor=none;fillColor=none;align=center;verticalAlign=middle;whiteSpace=wrap;rounded=0;" vertex="1" parent="1">
                    <mxGeometry x="320" y="345" width="40" height="20" as="geometry"/>
                </mxCell>
                <mxCell id="25" value="A" style="text;html=1;strokeColor=none;fillColor=none;align=center;verticalAlign=middle;whiteSpace=wrap;rounded=0;" vertex="1" parent="1">
                    <mxGeometry x="189.25" y="90" width="40" height="20" as="geometry"/>
                </mxCell>
                <mxCell id="26" value="B" style="text;html=1;strokeColor=none;fillColor=none;align=center;verticalAlign=middle;whiteSpace=wrap;rounded=0;" vertex="1" parent="1">
                    <mxGeometry x="160.5" y="255.25" width="40" height="20" as="geometry"/>
                </mxCell>
                <mxCell id="27" value="D" style="text;html=1;strokeColor=none;fillColor=none;align=center;verticalAlign=middle;whiteSpace=wrap;rounded=0;" vertex="1" parent="1">
                    <mxGeometry x="374" y="189" width="40" height="20" as="geometry"/>
                </mxCell>
                <mxCell id="28" value="E" style="text;html=1;strokeColor=none;fillColor=none;align=center;verticalAlign=middle;whiteSpace=wrap;rounded=0;" vertex="1" parent="1">
                    <mxGeometry x="469" y="239.5" width="40" height="20" as="geometry"/>
                </mxCell>
                <mxCell id="29" value="F" style="text;html=1;strokeColor=none;fillColor=none;align=center;verticalAlign=middle;whiteSpace=wrap;rounded=0;" vertex="1" parent="1">
                    <mxGeometry x="476.75" y="97" width="40" height="20" as="geometry"/>
                </mxCell>
            </root>
        </mxGraphModel>
    </diagram>
</mxfile>